<?xml version="1.0" encoding="UTF-8"?>
<svg xmlns="http://www.w3.org/2000/svg" viewBox="0 0 256 256" width="256" height="256">
  <defs>
    <linearGradient id="g" x1="0%" y1="0%" x2="100%" y2="100%">
      <stop offset="0%" stop-color="#22D3EE"/>
      <stop offset="50%" stop-color="#6366F1"/>
      <stop offset="100%" stop-color="#EC4899"/>
    </linearGradient>
    <linearGradient id="gold" x1="0%" y1="0%" x2="100%" y2="100%">
      <stop offset="0%" stop-color="#FDE68A"/>
      <stop offset="100%" stop-color="#B45309"/>
    </linearGradient>
  </defs>
  <rect width="256" height="256" rx="56" fill="#0B0F19"/>
  <rect x="36" y="36" width="184" height="184" rx="44" fill="url(#g)"/>
  <!-- compact PX -->
  <g transform="translate(70 78)">
    <rect x="0" y="0" width="22" height="100" rx="6" fill="#FFFFFF"/>
    <path d="M 22 0 L 60 0 A 30 30 0 0 1 60 60 L 22 60 Z" fill="#FFFFFF"/>
    <path d="M 22 16 L 56 16 A 14 14 0 0 1 56 44 L 22 44 Z" fill="url(#g)"/>
  </g>
  <g transform="translate(140 78)" stroke-linecap="round">
    <path d="M 8 8 L 64 64" stroke="#FFFFFF" stroke-width="18" fill="none"/>
    <path d="M 64 8 L 8 64" stroke="#FFFFFF" stroke-width="18" fill="none"/>
    <circle cx="36" cy="36" r="11" fill="url(#gold)" stroke="#FFFFFF" stroke-width="2"/>
  </g>
</svg>
